<svg xmlns="http://www.w3.org/2000/svg" width="58" height="54" viewBox="0 0 29 27">
    <g fill="none" fill-rule="evenodd">
        <g transform="translate(11.89 1)">
            <ellipse cx="7.881" cy="7.961" fill="#3067F0" stroke="#3067F0" stroke-width=".5" rx="8.131" ry="8.211"/>
            <path fill="#FFF" fill-rule="nonzero" d="M8.524 6.92v-.975h2.21V4.458H4.718v1.487h2.209v.975c-1.795.083-3.145.443-3.145.873s1.35.79 3.145.873v3.125h1.596V8.665c1.793-.083 3.14-.442 3.14-.872s-1.347-.789-3.14-.873zm0 1.48c-.044.002-.276.016-.792.016-.412 0-.702-.012-.804-.017V8.4c-1.586-.07-2.77-.35-2.77-.683 0-.333 1.184-.612 2.77-.684v1.09c.104.007.4.025.811.025.493 0 .74-.02.785-.025v-1.09c1.584.072 2.765.351 2.765.684 0 .334-1.181.612-2.765.683z"/>
        </g>
        <g transform="translate(2 9.629)">
            <ellipse cx="7.881" cy="7.961" fill="#3067F0" stroke="#FFF" stroke-width="1.049" rx="8.405" ry="8.485"/>
            <path fill="#FFF" fill-rule="nonzero" d="M10.337 5.784a.172.172 0 0 0-.129-.05h-.954a1.97 1.97 0 0 0-.357-.815h1.3a.173.173 0 0 0 .129-.05.178.178 0 0 0 .05-.13V4.16a.178.178 0 0 0-.05-.13.173.173 0 0 0-.129-.05H5.553a.173.173 0 0 0-.178.18v.752c0 .05.017.092.053.128a.17.17 0 0 0 .125.053h.81c.785 0 1.283.213 1.495.64H5.553a.173.173 0 0 0-.178.18v.577a.173.173 0 0 0 .179.18h2.383c-.082.31-.273.545-.573.707-.3.163-.694.244-1.186.244h-.625a.17.17 0 0 0-.125.053.175.175 0 0 0-.053.128v.718c0 .049.016.09.05.124.714.769 1.64 1.845 2.78 3.229.033.045.08.067.139.067h1.088c.079 0 .133-.033.162-.101.037-.068.03-.132-.022-.193-1.086-1.35-1.94-2.36-2.562-3.03.633-.076 1.146-.283 1.54-.622.395-.34.635-.78.72-1.323h.938a.172.172 0 0 0 .179-.181v-.577a.177.177 0 0 0-.05-.13z"/>
        </g>
    </g>
</svg>
